<svg width="23" height="20" viewBox="0 0 23 20" fill="none" xmlns="http://www.w3.org/2000/svg">
<path d="M0.639648 6.46875C0.681445 6.66032 0.729405 6.85313 0.787109 7.0459C1.90284 10.773 4.77354 12.4881 9.16895 12.1514L13.2881 11.8613C15.4141 11.6963 16.5344 12.4124 17.0225 14.043C17.6301 16.0729 16.2017 17.8418 13.373 18.6885C10.6444 19.5052 8.61181 18.772 7.96094 16.7188L3.70117 17.9941C3.82694 18.3818 3.97689 18.7481 4.14648 19.0938C1.61323 16.9843 0 13.8072 0 10.2529C4.34736e-05 8.92689 0.226652 7.65402 0.639648 6.46875ZM16.7031 0C20.4386 1.89937 22.9999 5.77527 23 10.2529C23 12.4099 22.4042 14.4273 21.3711 16.1523C21.6191 14.9771 21.5652 13.7121 21.1729 12.4014C20.087 8.77431 17.4196 7.25206 12.9912 7.59863L8.91504 7.91211C6.74566 8.05387 5.52486 7.36806 5.00684 5.6377C4.39918 3.60772 5.7177 1.83482 8.34668 1.04785C10.7427 0.330632 12.6085 1.11403 13.3359 3.18066L17.5957 1.90527C17.3617 1.20201 17.061 0.56661 16.7031 0Z" fill="white"/>
</svg>
