<svg width="349" height="334" viewBox="0 0 349 334" fill="none" xmlns="http://www.w3.org/2000/svg">
<g clip-path="url(#clip0_13_1333)">
<g filter="url(#filter0_f_13_1333)">
<path d="M243.39 92.0269L238.507 102.254L228.129 97.2992L222.635 82.1168L243.39 92.0269ZM217.751 92.3441L228.129 97.2992L233.624 112.482L223.246 107.526L218.363 117.754L212.868 102.571L217.751 92.3441Z" fill="#202020"/>
</g>
</g>
<path d="M165.662 131.139C208.366 119.514 247.96 113.371 277.359 112.728C292.118 112.405 303.875 113.481 312.046 115.708C320.79 118.091 322.84 121.016 323.17 122.227C323.499 123.439 323.215 126.999 316.886 133.485C310.971 139.547 301.381 146.434 288.496 153.637C262.828 167.985 225.583 182.759 182.879 194.385C140.175 206.01 100.581 212.153 71.1823 212.796C56.4232 213.119 44.6652 212.043 36.4939 209.816C27.7502 207.433 25.7011 204.508 25.3714 203.296C25.0417 202.085 25.3254 198.525 31.6545 192.039C37.5695 185.977 47.1595 179.09 60.0455 171.886C85.7134 157.539 122.958 142.765 165.662 131.139Z" stroke="url(#paint0_linear_13_1333)" stroke-width="15"/>
<path d="M39.9804 202.991C39.9804 202.991 122.243 190.909 156.55 208.167C190.858 225.425 217.846 283.959 217.846 283.959C217.846 283.959 202.796 215.677 223.287 175.345C243.777 135.013 298.776 105.327 298.776 105.327C298.776 105.327 219.164 137.326 187.183 123.378C155.202 109.431 123.814 52.2655 123.814 52.2655C123.814 52.2655 149.538 105.776 135.216 142.524C120.894 179.272 39.9804 202.991 39.9804 202.991Z" fill="url(#paint1_linear_13_1333)"/>
<g filter="url(#filter1_f_13_1333)">
<g clip-path="url(#clip1_13_1333)">
<path d="M117.517 219.852C114.414 216.642 114.447 211.576 117.592 208.537C120.736 205.497 125.801 205.635 128.903 208.845C132.006 212.055 131.973 217.121 128.828 220.16C125.684 223.2 120.62 223.062 117.517 219.852Z" fill="#1ABCFE"/>
<path d="M117.367 242.483C114.264 239.274 114.298 234.207 117.442 231.168L123.135 225.664L128.754 231.476C131.857 234.686 131.823 239.752 128.679 242.791C125.534 245.831 120.47 245.693 117.367 242.483Z" fill="#0ACF83"/>
<path d="M100.662 202.417L111.899 214.04L117.592 208.537C120.736 205.497 120.77 200.431 117.667 197.221C114.564 194.011 109.499 193.873 106.355 196.913L100.662 202.417Z" fill="#FF7262"/>
<path d="M94.8937 219.236C97.9967 222.446 103.061 222.584 106.205 219.544L111.899 214.04L100.662 202.417L94.9686 207.92C91.8243 210.96 91.7908 216.026 94.8937 219.236Z" fill="#F24E1E"/>
<path d="M106.13 230.86C109.233 234.069 114.298 234.207 117.442 231.168L123.135 225.664L111.899 214.04L106.205 219.544C103.061 222.584 103.028 227.65 106.13 230.86Z" fill="#A259FF"/>
</g>
</g>
<defs>
<filter id="filter0_f_13_1333" x="207.268" y="76.5168" width="41.722" height="46.8371" filterUnits="userSpaceOnUse" color-interpolation-filters="sRGB">
<feFlood flood-opacity="0" result="BackgroundImageFix"/>
<feBlend mode="normal" in="SourceGraphic" in2="BackgroundImageFix" result="shape"/>
<feGaussianBlur stdDeviation="2.8" result="effect1_foregroundBlur_13_1333"/>
</filter>
<filter id="filter1_f_13_1333" x="82.9849" y="185.117" width="69.064" height="69.4709" filterUnits="userSpaceOnUse" color-interpolation-filters="sRGB">
<feFlood flood-opacity="0" result="BackgroundImageFix"/>
<feBlend mode="normal" in="SourceGraphic" in2="BackgroundImageFix" result="shape"/>
<feGaussianBlur stdDeviation="3" result="effect1_foregroundBlur_13_1333"/>
</filter>
<linearGradient id="paint0_linear_13_1333" x1="132.164" y1="135.307" x2="312.305" y2="106.927" gradientUnits="userSpaceOnUse">
<stop stop-color="#F7FDFF"/>
<stop offset="1" stop-color="#9EE3FF" stop-opacity="0"/>
</linearGradient>
<linearGradient id="paint1_linear_13_1333" x1="168.584" y1="56.0947" x2="278.807" y2="187.179" gradientUnits="userSpaceOnUse">
<stop stop-color="#0B84DB"/>
<stop offset="0.675508" stop-color="#FFA9F4" stop-opacity="0.2"/>
<stop offset="0.851432" stop-color="#FFA9F4" stop-opacity="0"/>
</linearGradient>
<clipPath id="clip0_13_1333">
<rect width="23" height="34" fill="white" transform="translate(222.635 82.1168) rotate(25.5231)"/>
</clipPath>
<clipPath id="clip1_13_1333">
<rect width="32" height="49" fill="white" transform="translate(88.9849 213.358) rotate(-44.0301)"/>
</clipPath>
</defs>
</svg>
